<?xml version="1.0" encoding="UTF-8" standalone="no"?>
<svg
   xmlns:dc="http://purl.org/dc/elements/1.1/"
   xmlns:cc="http://creativecommons.org/ns#"
   xmlns:rdf="http://www.w3.org/1999/02/22-rdf-syntax-ns#"
   xmlns:svg="http://www.w3.org/2000/svg"
   xmlns="http://www.w3.org/2000/svg"
   xmlns:sodipodi="http://sodipodi.sourceforge.net/DTD/sodipodi-0.dtd"
   xmlns:inkscape="http://www.inkscape.org/namespaces/inkscape"
   width="186.15234"
   height="518.42969"
   viewBox="0 0 49.252806 137.16786"
   version="1.1"
   id="svg8"
   inkscape:version="1.0.1 (3bc2e813f5, 2020-09-07)"
   sodipodi:docname="linea2.svg">
  <defs
     id="defs2" />
  <sodipodi:namedview
     id="base"
     pagecolor="#ffffff"
     bordercolor="#666666"
     borderopacity="1.0"
     inkscape:pageopacity="0.0"
     inkscape:pageshadow="2"
     inkscape:zoom="1.3857143"
     inkscape:cx="177.64219"
     inkscape:cy="261.39381"
     inkscape:document-units="px"
     inkscape:current-layer="layer2"
     inkscape:document-rotation="0"
     showgrid="false"
     units="px"
     showguides="true"
     inkscape:guide-bbox="true"
     fit-margin-top="5"
     lock-margins="true"
     fit-margin-left="5"
     fit-margin-right="5"
     fit-margin-bottom="5"
     inkscape:window-width="1920"
     inkscape:window-height="1044"
     inkscape:window-x="0"
     inkscape:window-y="0"
     inkscape:window-maximized="1" />
  <metadata
     id="metadata5">
    <rdf:RDF>
      <cc:Work
         rdf:about="">
        <dc:format>image/svg+xml</dc:format>
        <dc:type
           rdf:resource="http://purl.org/dc/dcmitype/StillImage" />
        <dc:title></dc:title>
      </cc:Work>
    </rdf:RDF>
  </metadata>
  <g
     inkscape:groupmode="layer"
     id="layer2"
     inkscape:label="Capa 2"
     transform="translate(-118.20312,-49.871891)">
    <path
       id="path878"
       style="fill:#000000;stroke:none;stroke-width:0.999999;stroke-linecap:round;stroke-linejoin:round"
       d="m 613.06445,193.49219 a 14.838917,14.838917 0 0 0 -14.83984,14.83984 14.838917,14.838917 0 0 0 13.00391,14.72266 V 698.37695 H 451.75195 v 3.54493 h 159.47657 3.25586 v -3.54493 -475.27539 a 14.838917,14.838917 0 0 0 13.41992,-14.76953 14.838917,14.838917 0 0 0 -14.83985,-14.83984 z m -0.01,3.08984 a 11.748402,11.748401 0 0 1 0.002,0 11.748402,11.748401 0 0 1 0.008,0 11.748402,11.748401 0 0 1 11.74805,11.75 11.748402,11.748401 0 0 1 -11.74805,11.74805 11.748402,11.748401 0 0 1 -11.74804,-11.74805 11.748402,11.748401 0 0 1 11.73828,-11.75 z"
       transform="scale(0.26458333)" />
  </g>
</svg>
