<?xml version="1.0" encoding="UTF-8" standalone="no"?>
<svg
   xmlns:dc="http://purl.org/dc/elements/1.1/"
   xmlns:cc="http://creativecommons.org/ns#"
   xmlns:rdf="http://www.w3.org/1999/02/22-rdf-syntax-ns#"
   xmlns:svg="http://www.w3.org/2000/svg"
   xmlns="http://www.w3.org/2000/svg"
   xmlns:sodipodi="http://sodipodi.sourceforge.net/DTD/sodipodi-0.dtd"
   xmlns:inkscape="http://www.inkscape.org/namespaces/inkscape"
   width="182.56445"
   height="188"
   viewBox="0 0 48.30351 49.741668"
   version="1.1"
   id="svg8"
   inkscape:version="1.0.1 (3bc2e813f5, 2020-09-07)"
   sodipodi:docname="linea1.svg">
  <defs
     id="defs2" />
  <sodipodi:namedview
     id="base"
     pagecolor="#ffffff"
     bordercolor="#666666"
     borderopacity="1.0"
     inkscape:pageopacity="0.0"
     inkscape:pageshadow="2"
     inkscape:zoom="0.97984797"
     inkscape:cx="261.99185"
     inkscape:cy="145.94502"
     inkscape:document-units="px"
     inkscape:current-layer="layer2"
     inkscape:document-rotation="0"
     showgrid="false"
     units="px"
     showguides="true"
     inkscape:guide-bbox="true"
     fit-margin-top="5"
     lock-margins="true"
     fit-margin-left="5"
     fit-margin-right="5"
     fit-margin-bottom="5"
     inkscape:window-width="1920"
     inkscape:window-height="1044"
     inkscape:window-x="0"
     inkscape:window-y="0"
     inkscape:window-maximized="1" />
  <metadata
     id="metadata5">
    <rdf:RDF>
      <cc:Work
         rdf:about="">
        <dc:format>image/svg+xml</dc:format>
        <dc:type
           rdf:resource="http://purl.org/dc/dcmitype/StillImage" />
        <dc:title></dc:title>
      </cc:Work>
    </rdf:RDF>
  </metadata>
  <g
     inkscape:groupmode="layer"
     id="layer2"
     inkscape:label="Capa 2"
     transform="translate(-80.493276,-73.652364)">
    <path
       id="path884"
       style="fill:#000000;stroke-width:0.999999;stroke-linecap:round;stroke-linejoin:round"
       d="m 466.48633,283.87891 a 15.289946,15.289946 0 0 0 -15.27539,15.28906 15.289946,15.289946 0 0 0 13.21875,15.14844 V 458.24805 H 309.22656 v 3.12304 h 155.20313 3.01953 v -3.12304 -143.81836 a 15.289946,15.289946 0 0 0 14.3418,-15.26172 15.289946,15.289946 0 0 0 -15.28907,-15.28906 15.289946,15.289946 0 0 0 -0.0156,0 z m -0.0957,3.03906 a 12.25,12.25 0 0 1 0.11133,0 12.25,12.25 0 0 1 12.25,12.25 12.25,12.25 0 0 1 -12.25,12.25 12.25,12.25 0 0 1 -12.25,-12.25 12.25,12.25 0 0 1 12.13867,-12.25 z"
       transform="scale(0.26458333)" />
  </g>
</svg>
