<svg xmlns="http://www.w3.org/2000/svg" width="1347.889" height="152.088" viewBox="0 0 356.629 40.24"><path d="M314.832.132v10.472l26.17 18.934h-26.074l-.096 10.515h41.665V29.538l-26.055-18.934h26.055V.132zM115.114.187v39.92h10.97v-26.48l10.024 9.85 10.025-9.85v26.48h10.696V.188h-10.696l-10.025 10.538L126.084.187zm57.915 0V10.68l11.023 9.463-11.023 9.449v10.423h42.268V29.593h-28.102l10.435-9.45-10.435-9.462h28.102V.187zm57.329 0v10.471l26.171 18.935h-26.075l-.096 10.515h41.665V29.593l-26.055-18.935h26.055V.187zm57.567 0v39.92h11.019V.188zM.132.279v39.829h10.036V14.964l20.397 25.144h11.008V.279H30.565v24.668L10.317.28zm57.06 0v10.484l11.023 9.473-11.023 9.449v10.423h42.269V29.685H71.358l10.435-9.449-10.435-9.473H99.46V.279z"/></svg>